<?xml version="1.0" encoding="UTF-8" ?>
<!DOCTYPE svg PUBLIC "-//W3C//DTD SVG 1.1//EN" "http://www.w3.org/Graphics/SVG/1.1/DTD/svg11.dtd">
<svg width="1833pt" height="750pt" viewBox="0 0 1833 750" version="1.1" xmlns="http://www.w3.org/2000/svg">
<g id="#ffffffff">
<path fill="#ffffff" opacity="1.00" d=" M 410.13 5.64 C 416.39 5.29 422.67 5.25 428.93 5.60 L 428.04 6.41 C 430.59 6.27 433.16 6.43 435.72 6.62 L 435.18 7.42 C 436.70 7.42 438.23 7.46 439.76 7.54 L 439.10 8.43 C 440.04 8.41 441.92 8.37 442.86 8.36 L 442.00 9.35 C 442.96 9.37 444.86 9.39 445.82 9.40 L 445.09 10.42 C 445.95 10.44 447.67 10.47 448.53 10.48 L 448.50 11.76 L 450.35 11.05 C 450.38 11.44 450.44 12.21 450.47 12.60 C 451.01 12.48 452.10 12.24 452.65 12.11 L 452.33 13.58 C 452.91 13.46 454.09 13.24 454.67 13.13 L 454.24 14.34 C 457.12 14.31 459.12 16.90 461.72 17.71 L 461.41 18.40 C 462.59 18.55 463.65 19.02 464.57 19.79 L 464.51 20.23 C 465.75 20.46 466.48 21.15 466.72 22.31 C 468.03 22.53 469.57 23.23 469.73 24.74 L 470.45 24.42 L 470.59 25.52 L 471.75 25.54 L 471.40 26.67 L 472.78 26.36 L 472.34 27.57 L 473.65 27.42 L 473.52 28.73 L 474.73 28.27 L 474.28 29.60 L 475.54 29.32 L 475.30 30.25 C 477.56 31.35 478.42 34.07 480.32 35.61 C 481.10 36.46 481.52 37.46 481.60 38.62 L 482.32 38.22 C 482.76 39.47 483.47 40.70 484.27 41.75 C 485.16 43.22 485.87 44.81 486.87 46.22 C 487.30 47.37 487.61 48.56 487.81 49.77 L 488.87 49.36 C 488.76 49.91 488.55 51.02 488.45 51.57 L 489.78 51.61 C 489.72 51.95 489.60 52.63 489.54 52.97 C 490.19 54.11 490.61 55.32 490.79 56.63 L 491.45 56.52 C 491.54 57.93 491.60 59.34 491.64 60.75 L 492.56 60.28 C 492.60 61.77 492.62 63.26 492.63 64.75 L 493.49 64.28 C 493.52 65.58 493.60 66.88 493.73 68.18 C 494.48 69.99 494.52 72.00 494.61 73.94 C 494.80 81.91 495.05 90.07 492.77 97.79 C 492.66 98.54 492.45 100.02 492.35 100.77 L 491.53 100.26 C 491.54 101.17 491.55 102.98 491.55 103.89 L 490.63 103.07 C 490.62 103.98 490.59 105.80 490.58 106.71 L 489.77 106.20 C 489.82 107.67 489.38 108.94 488.45 109.99 C 488.55 110.33 488.75 110.99 488.84 111.33 L 487.49 111.42 C 487.54 111.94 487.65 112.98 487.70 113.50 L 486.38 113.44 C 486.49 113.91 486.71 114.87 486.82 115.35 L 485.39 115.47 C 485.48 115.92 485.66 116.81 485.74 117.25 L 484.72 117.50 C 483.40 120.97 481.08 124.12 478.47 126.72 L 478.55 127.65 L 477.75 127.54 C 474.85 132.37 470.41 135.52 466.31 139.35 C 465.05 140.19 463.90 141.26 462.44 141.73 L 462.66 142.28 C 461.71 142.77 460.76 143.24 459.81 143.70 C 458.24 144.31 457.25 146.47 455.20 145.54 L 456.16 146.77 L 454.94 146.53 C 454.42 146.82 453.39 147.42 452.87 147.72 C 451.10 148.57 449.44 149.80 447.36 149.59 L 447.60 150.52 C 446.72 150.53 444.96 150.55 444.08 150.56 L 444.85 151.54 C 443.89 151.57 441.97 151.62 441.01 151.65 L 441.83 152.54 C 440.92 152.54 439.10 152.54 438.19 152.53 L 438.62 153.37 C 436.81 153.54 434.98 153.54 433.18 153.64 L 433.66 154.40 C 430.78 154.59 427.90 154.73 425.03 154.56 L 425.91 155.35 C 422.30 155.40 418.69 155.40 415.08 155.43 L 415.99 154.58 C 412.46 154.70 408.93 154.66 405.42 154.27 L 405.74 153.55 C 404.24 153.55 402.75 153.51 401.27 153.43 L 401.89 152.53 C 400.95 152.56 399.07 152.61 398.13 152.64 L 398.93 151.52 C 397.98 151.57 396.08 151.67 395.12 151.72 L 395.93 150.54 C 395.01 150.57 393.18 150.64 392.26 150.67 L 392.89 149.68 C 391.22 149.96 389.97 149.50 389.15 148.30 C 388.78 148.43 388.04 148.70 387.68 148.83 L 387.58 147.33 C 387.09 147.43 386.11 147.64 385.63 147.75 L 385.60 146.33 C 385.13 146.43 384.19 146.62 383.71 146.72 L 383.55 145.65 C 381.92 144.89 380.24 144.33 378.55 143.72 L 382.46 142.91 C 380.82 141.77 376.28 143.89 376.20 140.52 C 375.72 140.53 374.76 140.57 374.28 140.59 L 374.67 139.16 L 373.19 139.83 L 373.66 136.50 L 372.01 139.24 C 371.88 138.20 371.64 136.12 371.51 135.08 L 370.30 136.79 C 370.03 136.43 369.48 135.72 369.21 135.36 L 368.19 135.58 L 368.67 134.15 L 367.29 134.72 L 367.76 133.27 L 366.31 133.72 L 366.77 132.26 L 365.47 132.79 L 365.71 131.37 L 364.30 131.68 L 364.76 130.83 C 364.36 130.53 363.56 129.94 363.16 129.65 C 370.41 126.17 359.59 131.00 361.35 126.26 L 359.91 126.76 L 360.79 125.25 L 358.86 125.41 C 359.54 124.61 360.91 123.02 361.59 122.22 C 359.35 124.42 357.90 124.14 357.24 121.39 L 356.25 121.22 C 356.38 120.73 356.64 119.76 356.77 119.28 L 355.31 119.75 C 355.39 119.15 355.56 117.96 355.64 117.37 L 354.17 117.68 L 354.57 116.23 L 353.33 116.34 C 353.42 115.86 353.59 114.90 353.68 114.42 L 352.29 114.30 C 352.41 113.83 352.64 112.88 352.76 112.41 L 351.49 112.49 C 351.48 111.65 351.45 109.97 351.44 109.13 L 349.90 109.63 C 350.16 109.05 350.67 107.88 350.93 107.30 L 349.50 107.77 C 349.49 106.50 349.45 103.96 349.44 102.69 L 348.17 105.19 C 348.28 104.17 348.48 102.12 348.58 101.09 L 347.45 101.78 C 347.46 100.88 347.50 99.07 347.52 98.16 L 346.68 98.59 C 346.59 97.31 346.48 96.03 346.36 94.76 C 345.13 92.37 345.52 89.58 345.39 86.99 C 345.50 80.15 345.13 73.29 345.74 66.46 L 346.49 66.77 C 346.47 65.24 346.51 63.72 346.60 62.20 L 347.57 62.95 C 347.51 62.01 347.40 60.15 347.34 59.21 L 348.48 59.87 C 348.43 58.37 348.46 56.87 348.58 55.38 L 349.90 55.60 C 349.66 55.05 349.18 53.96 348.94 53.42 L 350.45 53.85 C 350.45 53.00 350.46 51.30 350.46 50.45 L 351.82 50.60 C 351.64 50.09 351.29 49.07 351.11 48.56 L 352.65 48.65 C 352.55 48.09 352.34 46.98 352.24 46.42 L 353.77 46.64 C 353.61 46.13 353.30 45.12 353.14 44.61 L 354.72 44.59 C 354.60 44.10 354.35 43.12 354.23 42.63 L 355.78 42.73 L 354.84 41.14 L 356.60 41.87 C 356.51 41.25 356.33 40.01 356.24 39.39 L 357.80 39.86 L 356.90 38.25 L 358.71 38.69 C 358.59 38.17 358.33 37.14 358.21 36.62 C 360.20 36.99 359.31 33.37 361.79 34.32 C 361.62 33.90 361.26 33.04 361.09 32.61 L 362.44 32.75 L 362.46 31.45 L 363.51 31.53 C 363.68 30.89 364.01 29.62 364.18 28.99 L 365.29 31.10 C 364.56 28.19 367.64 25.10 370.59 26.52 L 367.94 25.12 C 368.62 24.97 369.98 24.66 370.66 24.50 L 370.15 23.19 L 371.76 23.86 L 371.12 22.43 L 372.33 22.79 C 372.54 22.26 372.97 21.22 373.18 20.69 L 374.18 24.05 C 372.76 21.12 375.11 20.00 376.73 18.69 C 377.65 18.12 378.63 17.66 379.66 17.31 L 379.71 16.20 C 380.24 16.35 381.29 16.65 381.82 16.80 L 381.09 15.70 C 382.28 15.27 383.47 14.83 384.66 14.39 L 384.71 13.36 C 385.07 13.42 385.79 13.54 386.15 13.60 C 387.06 12.50 388.30 12.06 389.87 12.29 L 389.30 10.94 C 389.86 11.14 390.98 11.55 391.54 11.75 L 391.61 10.10 C 392.09 10.28 393.06 10.63 393.54 10.80 L 393.48 9.58 C 394.93 9.46 396.38 9.41 397.85 9.44 L 397.17 8.30 C 398.10 8.34 399.98 8.42 400.91 8.47 L 400.21 7.45 C 401.76 7.41 403.30 7.42 404.86 7.45 L 404.25 6.55 C 406.49 6.46 408.73 6.30 410.97 6.43 L 410.13 5.64 Z" />
<path fill="#ffffff" opacity="1.00" d=" M 589.07 5.57 C 640.37 5.12 691.68 5.50 742.98 5.37 C 964.65 5.36 1186.32 5.34 1407.99 5.33 C 1415.25 5.35 1422.52 5.23 1429.79 5.53 L 1429.11 6.35 C 1431.27 6.35 1433.48 6.39 1435.67 6.54 L 1435.23 7.40 C 1436.72 7.38 1438.23 7.42 1439.75 7.53 L 1439.23 8.51 C 1440.13 8.47 1441.92 8.39 1442.82 8.35 L 1442.08 9.36 C 1443.02 9.38 1444.91 9.41 1445.85 9.42 L 1445.00 10.17 C 1446.57 10.10 1447.90 10.58 1448.99 11.61 C 1449.32 11.49 1449.97 11.26 1450.30 11.15 L 1450.46 12.62 C 1450.94 12.52 1451.89 12.32 1452.37 12.22 L 1452.46 13.62 C 1452.93 13.52 1453.89 13.31 1454.37 13.21 L 1454.43 14.58 C 1454.81 14.53 1455.58 14.42 1455.97 14.37 C 1456.90 15.44 1458.31 16.39 1459.74 16.66 L 1459.41 17.43 C 1460.64 17.53 1461.73 17.98 1462.70 18.77 L 1462.40 19.30 C 1464.22 19.72 1465.55 21.14 1466.73 22.51 L 1467.55 22.52 L 1467.61 23.26 C 1468.68 23.53 1469.41 24.19 1469.80 25.22 C 1470.63 25.67 1471.37 26.26 1472.01 26.99 C 1473.08 28.02 1474.23 29.03 1474.77 30.49 L 1475.68 30.37 L 1475.44 31.61 L 1476.15 31.48 C 1477.09 32.80 1478.33 33.99 1478.69 35.65 L 1479.22 35.27 C 1481.10 38.74 1484.00 41.82 1484.69 45.73 L 1485.99 45.51 C 1485.84 45.92 1485.52 46.76 1485.36 47.17 L 1486.57 47.76 C 1486.57 48.22 1486.58 49.15 1486.59 49.62 L 1487.59 49.44 C 1487.61 50.32 1487.66 52.09 1487.68 52.97 L 1489.14 52.18 C 1488.91 52.78 1488.46 53.99 1488.23 54.59 L 1489.41 54.30 C 1489.48 55.20 1489.63 57.00 1489.70 57.90 L 1490.48 57.39 C 1490.52 58.81 1490.55 60.23 1490.58 61.64 L 1491.45 61.40 C 1491.52 62.82 1491.57 64.25 1491.60 65.67 L 1492.26 65.52 C 1492.91 74.20 1492.86 82.95 1492.30 91.63 L 1491.59 91.28 C 1491.64 93.08 1491.39 94.86 1491.32 96.66 L 1490.72 96.24 C 1490.11 98.31 1490.75 101.62 1488.53 102.71 C 1488.53 103.42 1488.54 104.85 1488.55 105.57 L 1487.34 105.44 C 1487.47 106.02 1487.74 107.17 1487.88 107.75 L 1486.46 107.29 C 1486.60 107.99 1486.86 109.40 1487.00 110.10 L 1485.80 108.69 C 1485.87 110.21 1485.54 111.60 1484.81 112.86 C 1484.06 114.48 1482.91 115.93 1482.23 117.63 L 1481.63 117.43 C 1481.21 118.60 1480.74 119.75 1480.23 120.89 L 1479.50 120.28 C 1479.59 121.67 1478.94 123.45 1477.37 123.66 L 1477.57 124.68 L 1476.70 124.52 C 1476.58 125.81 1475.92 126.53 1474.72 126.70 C 1474.64 128.77 1471.99 128.74 1471.97 130.91 C 1469.94 131.04 1469.69 133.65 1467.73 133.69 C 1467.54 134.93 1466.79 135.61 1465.50 135.73 L 1465.69 136.63 L 1464.72 136.42 C 1463.58 138.37 1461.12 138.95 1459.79 140.71 L 1458.41 140.20 L 1458.80 141.32 C 1456.83 141.58 1455.54 143.70 1453.44 143.69 L 1453.29 144.71 C 1452.84 144.63 1451.94 144.47 1451.48 144.39 L 1451.30 145.67 C 1450.96 145.63 1450.30 145.55 1449.97 145.51 C 1448.85 146.35 1447.59 146.77 1446.19 146.78 L 1446.67 147.72 C 1446.22 147.68 1445.32 147.59 1444.87 147.55 C 1443.57 148.76 1441.79 148.73 1440.17 148.57 L 1440.83 149.60 C 1439.92 149.59 1438.10 149.57 1437.19 149.56 L 1437.74 150.38 C 1436.25 150.48 1434.78 150.56 1433.33 150.61 L 1433.48 151.26 C 1430.36 151.56 1427.22 151.75 1424.10 151.66 L 1424.61 152.60 C 1423.83 152.55 1422.28 152.44 1421.51 152.38 L 1421.00 144.11 L 1420.49 152.44 L 1416.61 152.32 L 1420.22 151.36 L 1416.60 151.65 L 1416.00 153.66 L 1415.40 151.70 L 1411.89 151.52 L 1415.06 152.82 C 1411.40 152.06 1407.68 152.34 1404.00 152.42 L 1405.01 151.61 C 1397.33 151.87 1389.66 151.74 1381.99 151.61 L 1384.44 152.67 C 1383.12 152.57 1380.47 152.38 1379.15 152.28 L 1379.65 151.07 C 1377.75 152.82 1375.25 152.17 1373.00 152.11 C 1371.12 152.28 1368.32 150.49 1367.57 153.36 L 1367.72 151.62 L 1363.81 151.63 L 1367.11 152.80 C 1365.71 152.69 1362.91 152.46 1361.50 152.34 L 1361.00 143.79 L 1360.49 152.35 L 1357.26 152.46 L 1360.06 149.88 L 1357.08 151.68 L 1355.18 151.39 L 1355.92 152.36 C 1353.61 152.32 1351.31 152.36 1349.04 152.39 L 1349.96 151.61 C 1347.97 151.65 1346.00 151.65 1344.04 151.61 L 1344.96 152.43 C 1339.87 152.27 1334.77 151.92 1329.72 152.57 L 1331.86 151.63 C 1328.82 151.40 1325.28 152.57 1322.84 149.97 L 1325.82 152.39 L 1320.90 152.33 L 1324.05 151.21 C 1321.21 151.79 1318.34 151.77 1315.52 151.40 L 1318.02 152.45 C 1314.42 151.97 1310.74 152.62 1307.21 151.79 C 1306.46 151.70 1304.97 151.51 1304.22 151.42 L 1304.86 152.41 C 1301.24 152.10 1297.61 152.11 1294.02 152.41 L 1294.97 151.56 C 1292.69 151.36 1289.76 152.63 1288.11 150.42 L 1288.91 152.33 C 1287.98 152.36 1286.11 152.42 1285.18 152.45 L 1285.85 151.64 C 1283.52 151.75 1281.23 151.58 1278.97 151.12 L 1282.06 152.33 L 1277.19 152.38 L 1279.94 150.17 C 1278.78 150.54 1276.46 151.29 1275.30 151.66 L 1275.68 152.47 C 1272.79 152.26 1269.91 152.31 1267.04 152.41 L 1267.98 151.57 C 1263.78 152.01 1259.57 151.71 1255.38 151.56 L 1255.11 154.03 L 1254.48 151.59 L 1252.63 151.58 L 1251.85 153.62 L 1251.55 151.57 C 1248.85 151.69 1246.16 151.69 1243.49 151.57 L 1243.01 153.58 L 1242.48 151.52 C 1241.74 151.52 1240.26 151.52 1239.52 151.52 L 1238.99 153.58 L 1238.53 151.58 C 1235.39 151.70 1232.26 151.69 1229.14 151.59 L 1229.69 152.33 C 1226.15 152.45 1222.62 152.73 1219.10 152.61 L 1219.92 153.63 C 1218.32 153.63 1216.74 153.61 1215.17 153.57 L 1215.81 154.62 C 1214.89 154.59 1213.06 154.52 1212.14 154.49 L 1212.77 155.42 C 1211.83 155.48 1209.96 155.59 1209.02 155.65 L 1209.74 156.43 C 1208.82 156.50 1206.97 156.64 1206.04 156.71 L 1206.57 158.08 C 1206.16 157.88 1205.35 157.49 1204.94 157.30 C 1204.01 158.50 1202.71 158.98 1201.04 158.73 L 1202.19 159.89 L 1200.86 159.37 C 1199.65 160.55 1198.18 161.60 1196.44 161.59 L 1196.28 162.77 C 1195.76 162.65 1194.71 162.43 1194.18 162.32 L 1194.95 163.34 C 1193.86 164.10 1191.44 164.05 1191.45 165.66 C 1189.04 164.54 1189.79 168.11 1187.38 167.75 L 1187.71 168.79 L 1186.30 168.32 L 1186.71 169.25 C 1182.62 171.40 1179.95 175.72 1176.42 178.72 L 1176.48 179.64 L 1175.64 179.54 C 1175.55 181.02 1174.80 181.72 1173.38 181.64 C 1173.49 182.10 1173.70 183.02 1173.81 183.48 L 1172.56 183.41 C 1172.41 184.62 1171.97 185.72 1171.24 186.71 L 1170.28 186.38 C 1170.38 186.83 1170.58 187.73 1170.68 188.18 L 1169.36 188.51 L 1169.73 189.85 L 1168.31 189.28 C 1168.45 189.83 1168.74 190.93 1168.89 191.49 L 1167.44 191.36 C 1167.51 191.93 1167.67 193.07 1167.75 193.63 L 1166.46 193.26 C 1166.53 193.85 1166.69 195.01 1166.77 195.59 L 1165.71 195.27 C 1165.76 196.69 1165.34 197.92 1164.46 198.96 C 1164.56 199.36 1164.77 200.18 1164.88 200.59 L 1163.62 200.16 C 1163.60 201.05 1163.57 202.84 1163.55 203.74 L 1162.70 203.12 C 1162.74 206.07 1161.30 208.77 1161.34 211.72 L 1160.53 211.23 C 1160.65 213.11 1160.50 214.99 1160.56 216.88 L 1159.61 216.06 C 1159.66 221.60 1159.72 227.15 1159.57 232.69 L 1160.19 232.54 C 1160.37 235.66 1160.70 238.78 1160.64 241.91 L 1161.58 241.18 C 1161.60 242.72 1161.58 244.26 1161.54 245.81 L 1162.60 245.22 C 1162.58 246.14 1162.53 247.96 1162.51 248.88 L 1163.45 248.21 C 1163.51 249.43 1163.61 251.86 1163.66 253.08 L 1164.74 250.96 C 1164.69 251.95 1164.60 253.94 1164.55 254.93 L 1166.07 254.26 C 1165.87 254.84 1165.47 256.00 1165.27 256.58 L 1166.75 256.44 C 1166.67 256.99 1166.51 258.08 1166.43 258.62 L 1167.84 258.57 C 1167.71 259.06 1167.47 260.06 1167.34 260.56 L 1168.86 260.61 C 1168.71 261.16 1168.41 262.26 1168.26 262.80 L 1169.34 261.99 C 1169.74 263.18 1170.15 264.37 1170.54 265.57 L 1171.27 265.37 C 1171.70 266.35 1172.17 267.31 1172.69 268.26 C 1172.97 268.56 1173.52 269.15 1173.79 269.44 L 1171.73 270.58 C 1174.00 269.73 1175.33 270.41 1175.73 272.61 L 1176.13 272.41 C 1179.04 276.64 1183.13 279.86 1186.70 283.48 C 1186.93 283.70 1187.40 284.13 1187.63 284.35 C 1189.67 284.71 1190.24 285.93 1189.34 288.03 C 1189.83 287.47 1190.81 286.36 1191.29 285.81 L 1191.39 287.43 C 1192.49 287.63 1193.55 288.04 1194.56 288.66 L 1194.59 289.40 C 1195.16 289.61 1196.29 290.04 1196.86 290.25 C 1199.46 291.81 1202.31 292.91 1204.89 294.54 C 1205.25 294.48 1205.98 294.37 1206.35 294.31 L 1206.52 295.72 C 1207.05 295.53 1208.11 295.15 1208.64 294.96 L 1208.14 296.40 C 1209.06 296.38 1210.88 296.35 1211.79 296.34 L 1211.21 297.43 C 1212.70 297.42 1214.20 297.43 1215.71 297.47 L 1215.23 298.44 C 1216.76 298.40 1218.30 298.40 1219.85 298.44 L 1219.10 299.38 C 1222.28 299.28 1225.48 299.55 1228.67 299.68 L 1228.15 300.41 C 1397.78 300.24 1567.42 300.37 1737.06 300.31 C 1745.57 300.46 1754.10 299.95 1762.60 300.70 L 1762.35 301.42 C 1763.79 301.41 1765.25 301.43 1766.73 301.48 L 1766.26 302.39 C 1767.71 302.37 1769.19 302.41 1770.69 302.51 L 1770.19 303.40 C 1771.09 303.41 1772.89 303.42 1773.79 303.43 L 1773.00 304.16 C 1774.51 304.04 1775.80 304.45 1776.87 305.38 L 1778.06 305.37 C 1778.23 305.60 1778.58 306.05 1778.75 306.27 C 1781.77 306.44 1783.85 308.86 1786.65 309.61 L 1786.36 310.30 C 1786.98 310.52 1788.20 310.95 1788.82 311.17 C 1789.86 311.78 1790.88 312.41 1791.72 313.36 C 1793.28 314.01 1794.66 315.14 1795.71 316.49 C 1795.95 316.67 1796.43 317.04 1796.67 317.22 C 1799.48 319.00 1801.85 321.49 1803.86 324.15 C 1804.83 324.65 1805.49 325.44 1805.82 326.53 L 1806.23 326.40 C 1807.11 327.90 1808.17 329.29 1809.27 330.65 C 1810.37 332.50 1812.14 334.00 1812.72 336.13 C 1813.52 337.58 1814.73 338.80 1814.73 340.62 L 1815.85 340.56 C 1815.74 341.05 1815.52 342.05 1815.40 342.55 L 1816.88 342.62 C 1816.74 343.07 1816.48 343.99 1816.34 344.45 L 1817.36 344.57 C 1817.52 346.17 1818.56 347.52 1818.72 349.14 C 1819.16 350.07 1819.53 351.06 1819.82 352.08 C 1820.50 353.52 1820.42 355.19 1820.77 356.75 L 1821.34 356.45 C 1821.51 358.17 1821.51 359.90 1821.66 361.64 L 1822.28 361.49 C 1822.79 366.98 1822.72 372.49 1822.68 378.00 C 1822.52 380.64 1822.77 383.41 1821.73 385.91 C 1821.57 387.15 1821.48 388.41 1821.46 389.67 L 1820.62 389.31 C 1820.59 390.79 1820.55 392.27 1820.50 393.75 L 1819.74 393.18 C 1819.68 395.39 1818.91 397.47 1818.45 399.61 L 1817.80 399.24 C 1817.77 400.65 1817.33 401.90 1816.50 403.00 C 1816.56 403.32 1816.69 403.97 1816.76 404.30 L 1815.42 404.48 C 1815.51 404.96 1815.70 405.92 1815.79 406.39 L 1814.42 406.45 C 1814.50 406.91 1814.65 407.84 1814.73 408.30 L 1813.75 408.47 C 1813.36 410.38 1812.01 411.87 1811.22 413.60 L 1810.61 413.45 C 1810.46 414.69 1809.94 416.31 1808.60 416.69 C 1807.91 418.28 1806.84 419.81 1805.35 420.71 L 1805.62 421.36 L 1804.61 421.53 L 1804.52 422.65 L 1803.83 422.46 C 1803.47 423.68 1802.70 424.49 1801.50 424.88 L 1801.62 426.04 L 1800.66 425.35 C 1800.51 426.73 1799.75 427.57 1798.40 427.86 L 1798.71 428.61 L 1797.50 428.50 L 1797.45 429.60 L 1796.88 429.54 C 1796.35 429.84 1795.28 430.44 1794.74 430.74 C 1794.46 431.88 1793.72 432.57 1792.51 432.80 L 1792.59 433.30 C 1791.59 433.90 1790.55 434.35 1789.47 434.65 L 1789.59 435.22 C 1787.84 436.02 1786.40 437.49 1784.45 437.74 L 1784.31 438.76 C 1783.85 438.68 1782.92 438.51 1782.45 438.42 L 1782.34 439.82 C 1781.89 439.70 1780.99 439.47 1780.54 439.35 L 1780.42 440.31 C 1778.38 440.94 1776.35 441.72 1774.21 441.75 L 1774.63 442.34 C 1773.01 442.56 1771.36 442.47 1769.81 442.76 C 1760.65 444.49 1751.22 443.31 1741.96 443.66 C 1684.31 443.38 1626.66 443.56 1569.01 443.51 C 1398.00 443.50 1226.99 443.50 1055.98 443.49 C 994.48 443.57 932.97 443.30 871.47 443.62 L 872.86 444.57 C 870.61 444.37 868.35 444.74 866.11 444.56 L 866.78 445.55 C 865.24 445.56 863.71 445.56 862.19 445.53 L 862.78 446.60 C 861.86 446.59 860.03 446.56 859.11 446.55 L 859.72 447.54 C 858.82 447.56 857.03 447.59 856.13 447.61 L 856.54 448.99 C 856.04 448.79 855.04 448.41 854.54 448.22 L 854.47 449.31 C 852.67 449.68 851.06 450.63 849.21 450.73 L 849.57 452.00 C 848.99 451.80 847.83 451.39 847.24 451.19 L 847.99 452.74 L 846.64 452.25 C 846.50 452.61 846.22 453.31 846.08 453.66 L 844.47 453.21 L 844.60 454.27 C 843.61 454.67 842.64 455.12 841.70 455.62 C 840.69 456.52 839.77 457.58 838.32 457.69 L 838.38 458.84 C 837.94 458.70 837.06 458.43 836.62 458.29 C 836.67 459.86 835.86 460.71 834.18 460.84 L 834.74 462.04 L 833.08 461.26 L 833.70 462.89 L 832.36 462.17 L 832.65 463.51 L 831.38 463.31 L 831.59 464.53 L 830.35 464.36 L 830.54 465.60 L 829.32 465.36 L 829.53 466.62 L 828.29 466.37 L 828.56 467.63 L 827.36 467.32 L 827.67 468.66 L 826.75 468.42 C 825.88 470.37 824.21 471.79 823.10 473.59 L 822.55 473.31 C 822.32 474.45 821.89 475.53 821.26 476.56 L 820.60 476.37 C 820.25 477.49 819.81 478.58 819.28 479.64 L 818.57 479.35 C 818.34 479.95 817.89 481.16 817.66 481.76 C 816.70 483.76 815.90 486.13 814.37 487.77 C 814.45 488.16 814.61 488.95 814.69 489.35 L 813.22 489.53 C 813.43 490.05 813.84 491.10 814.05 491.62 L 812.59 491.12 C 812.60 492.02 812.60 493.83 812.61 494.73 L 811.57 494.19 C 811.55 495.67 811.49 497.15 811.40 498.63 L 810.55 498.23 C 810.53 499.71 810.48 501.20 810.40 502.70 L 809.52 502.17 C 809.74 504.05 809.40 505.94 809.59 507.83 L 808.60 507.03 C 808.61 514.01 808.59 520.99 808.61 527.97 L 809.66 527.18 C 809.57 528.53 809.54 529.89 809.58 531.26 C 810.82 532.84 810.43 534.96 810.61 536.84 L 811.40 536.35 C 811.49 537.83 811.55 539.31 811.57 540.81 L 812.61 540.27 C 812.60 541.17 812.59 542.96 812.59 543.86 L 814.02 543.41 C 813.83 543.93 813.43 544.96 813.23 545.48 L 814.66 545.63 C 814.60 546.02 814.48 546.80 814.42 547.19 C 815.92 548.97 816.61 551.28 817.71 553.28 C 817.92 553.87 818.35 555.05 818.56 555.64 L 819.28 555.36 C 819.72 556.35 820.13 557.36 820.52 558.39 C 821.81 558.96 822.44 560.36 822.64 561.68 L 823.53 561.46 C 823.58 562.61 823.67 564.91 823.72 566.05 L 824.83 562.67 C 825.02 563.32 825.40 564.63 825.59 565.29 C 826.59 565.60 827.32 566.25 827.77 567.21 C 828.02 567.45 828.51 567.94 828.76 568.19 C 829.36 569.92 830.63 570.42 831.85 571.64 L 832.71 571.54 L 832.43 572.88 L 833.84 572.36 L 833.24 573.73 L 834.73 573.24 L 834.40 574.33 C 836.75 574.62 837.31 575.95 836.08 578.31 C 838.07 572.68 840.01 580.78 842.92 579.53 L 842.02 581.96 C 842.50 581.52 843.48 580.64 843.97 580.19 L 844.73 581.41 C 846.68 581.47 847.80 583.80 849.87 583.55 L 849.21 584.65 C 849.82 584.51 851.03 584.25 851.64 584.11 L 851.29 585.31 C 853.01 585.06 854.22 585.55 854.90 586.77 C 855.30 586.57 856.10 586.16 856.50 585.96 L 856.13 587.38 C 857.03 587.40 858.82 587.44 859.72 587.46 L 859.11 588.45 C 860.02 588.44 861.84 588.44 862.75 588.43 L 862.16 589.40 C 863.94 589.45 865.76 589.50 867.56 589.67 L 867.21 590.41 C 869.32 590.37 871.45 590.64 873.58 590.72 L 873.21 591.45 C 1099.47 591.60 1325.73 591.46 1551.99 591.49 C 1621.54 591.56 1691.08 591.35 1760.63 591.58 L 1760.35 592.38 C 1763.05 592.22 1765.78 592.42 1768.49 592.73 L 1768.37 593.39 C 1769.78 593.42 1771.20 593.49 1772.64 593.58 L 1772.09 594.30 C 1773.04 594.36 1774.93 594.47 1775.87 594.52 L 1775.10 595.45 C 1776.09 595.40 1778.07 595.29 1779.06 595.23 L 1777.04 596.23 C 1779.14 595.77 1780.77 596.24 1781.93 597.66 C 1782.28 597.50 1782.98 597.18 1783.34 597.02 L 1783.43 598.57 C 1783.95 598.46 1784.99 598.23 1785.51 598.12 L 1785.39 599.56 C 1785.94 599.45 1787.05 599.23 1787.60 599.13 L 1787.28 600.29 C 1789.10 600.11 1790.42 601.40 1791.81 602.36 C 1792.82 602.64 1793.79 603.10 1794.72 603.74 L 1794.43 604.37 C 1795.58 604.57 1796.63 605.03 1797.61 605.74 L 1797.50 606.24 C 1799.66 607.15 1801.21 608.98 1802.86 610.60 L 1803.69 610.47 L 1803.35 611.49 L 1804.55 611.45 L 1804.51 612.66 L 1805.65 612.23 L 1805.38 613.61 L 1806.50 613.26 L 1806.57 614.41 L 1807.68 614.61 L 1807.35 615.59 L 1808.53 615.35 L 1808.33 616.23 C 1810.10 617.55 1811.58 619.32 1812.61 621.31 C 1813.91 621.77 1814.37 623.32 1814.63 624.56 L 1815.22 624.42 C 1815.96 626.17 1817.50 627.57 1817.74 629.55 L 1818.78 629.65 C 1818.68 630.13 1818.49 631.10 1818.40 631.59 L 1819.73 631.39 C 1819.69 631.95 1819.59 633.06 1819.54 633.62 L 1820.92 633.65 C 1820.79 634.01 1820.54 634.72 1820.41 635.07 C 1821.50 635.98 1821.96 637.23 1821.81 638.81 L 1823.10 638.41 C 1822.88 638.94 1822.45 640.00 1822.23 640.53 L 1823.38 640.31 C 1823.47 641.21 1823.65 643.01 1823.74 643.91 L 1824.48 643.37 C 1824.53 644.81 1824.56 646.25 1824.55 647.71 L 1825.42 647.24 C 1825.50 648.70 1825.57 650.17 1825.63 651.65 L 1826.29 651.45 C 1826.46 656.99 1827.42 662.44 1827.45 667.98 L 1826.64 667.06 C 1826.75 670.89 1826.71 674.74 1826.27 678.56 L 1825.63 678.33 C 1825.57 679.79 1825.50 681.27 1825.43 682.75 L 1824.57 682.31 C 1824.55 683.74 1824.51 685.17 1824.46 686.61 L 1823.71 686.14 C 1823.63 687.01 1823.48 688.75 1823.41 689.62 L 1822.63 689.40 C 1822.56 691.14 1821.82 692.75 1821.34 694.41 L 1820.37 694.53 C 1820.49 694.98 1820.72 695.90 1820.84 696.36 L 1819.44 696.44 C 1819.53 696.93 1819.71 697.92 1819.80 698.42 L 1818.43 698.41 C 1818.52 698.88 1818.68 699.82 1818.76 700.30 L 1817.75 700.48 C 1817.52 701.06 1817.07 702.22 1816.84 702.80 C 1816.23 703.67 1815.70 704.58 1815.25 705.54 L 1814.68 705.47 C 1814.52 706.91 1813.54 707.85 1812.55 708.79 L 1812.48 709.69 L 1811.69 709.54 C 1811.60 710.90 1810.94 711.61 1809.71 711.67 C 1809.59 712.89 1809.06 713.77 1808.11 714.32 C 1807.89 714.63 1807.45 715.25 1807.22 715.55 L 1806.82 715.49 C 1806.40 716.64 1805.62 717.42 1804.47 717.83 L 1804.62 718.28 C 1804.29 718.59 1803.63 719.23 1803.30 719.55 L 1802.78 719.34 C 1801.40 721.11 1799.66 722.56 1797.74 723.70 C 1796.98 724.89 1795.79 725.53 1794.42 725.63 L 1794.70 726.30 C 1793.72 726.82 1792.74 727.27 1791.76 727.66 C 1790.51 728.71 1789.03 729.73 1787.34 729.73 L 1787.51 730.92 C 1787.00 730.79 1785.97 730.52 1785.45 730.38 C 1785.46 730.75 1785.47 731.49 1785.47 731.86 L 1783.41 731.44 L 1783.36 732.92 C 1783.01 732.79 1782.31 732.53 1781.96 732.40 C 1780.96 733.42 1779.70 733.89 1778.19 733.79 L 1778.65 734.41 C 1776.48 734.80 1774.41 735.63 1772.23 735.77 L 1772.58 736.34 C 1771.30 736.45 1770.05 736.58 1768.83 736.74 C 1766.11 737.97 1763.01 737.66 1760.13 737.62 L 1760.80 738.35 C 1707.85 738.73 1654.90 738.41 1601.95 738.51 C 1155.04 738.48 708.14 738.50 261.23 738.44 L 261.93 737.55 C 259.13 737.66 256.33 737.44 253.52 737.47 C 253.60 737.20 253.74 736.66 253.82 736.39 C 252.90 736.45 251.07 736.56 250.15 736.62 L 250.89 735.50 C 249.36 735.53 247.82 735.53 246.30 735.51 L 246.90 734.46 C 245.97 734.51 244.13 734.60 243.21 734.64 L 244.83 733.69 C 242.79 734.11 241.24 733.64 240.15 732.28 C 239.78 732.41 239.04 732.68 238.67 732.81 L 238.60 731.30 C 238.10 731.42 237.09 731.66 236.58 731.78 L 236.61 730.28 C 236.10 730.41 235.08 730.66 234.57 730.79 L 234.59 729.26 C 234.12 729.39 233.16 729.64 232.68 729.77 L 232.61 728.60 C 231.97 728.27 230.70 727.61 230.06 727.28 L 228.79 727.61 L 231.03 724.23 L 228.21 726.80 C 227.53 725.37 225.93 725.05 224.54 724.81 L 228.91 723.81 C 227.54 723.73 224.82 723.57 223.45 723.50 L 223.67 722.70 C 221.78 722.05 220.06 720.51 219.23 718.70 C 216.95 718.80 217.98 715.88 215.56 716.23 C 215.55 715.80 215.51 714.94 215.49 714.51 C 214.77 714.35 213.32 714.03 212.60 713.87 L 216.74 712.94 C 212.42 714.85 212.49 711.02 209.90 710.13 C 210.74 709.20 212.43 707.35 213.28 706.43 C 211.34 713.72 204.00 704.09 211.17 703.58 L 207.98 705.78 L 206.84 705.26 C 206.72 704.80 206.47 703.88 206.35 703.42 C 206.04 703.36 205.43 703.24 205.13 703.18 L 205.83 701.81 C 205.49 701.65 204.83 701.32 204.49 701.15 L 204.38 699.21 L 203.07 699.58 C 203.24 699.02 203.58 697.90 203.76 697.34 L 202.09 697.57 C 202.25 697.02 202.57 695.91 202.73 695.36 L 201.07 695.48 C 201.26 694.95 201.64 693.89 201.83 693.36 L 200.45 693.62 C 200.45 692.75 200.45 691.00 200.45 690.13 L 198.91 690.60 C 199.16 690.06 199.66 688.98 199.91 688.44 L 198.60 688.59 C 198.48 687.09 198.45 685.59 198.49 684.11 L 197.44 684.82 C 197.46 683.90 197.51 682.07 197.53 681.15 L 196.66 681.61 C 196.55 679.81 196.48 678.01 196.47 676.23 L 195.75 676.55 C 195.24 668.86 195.24 661.14 195.76 653.46 L 196.46 653.77 C 196.51 651.97 196.52 650.19 196.66 648.41 L 197.52 648.85 C 197.50 647.93 197.46 646.10 197.44 645.18 L 198.48 645.89 C 198.46 644.36 198.51 642.84 198.62 641.33 L 199.93 641.60 C 199.68 641.05 199.17 639.95 198.92 639.40 L 200.45 639.86 C 200.45 639.00 200.44 637.27 200.44 636.41 L 201.85 636.60 C 201.65 636.08 201.23 635.02 201.02 634.49 L 202.53 634.76 C 202.49 634.10 202.41 632.79 202.37 632.13 L 205.58 632.94 C 204.87 632.38 203.44 631.25 202.73 630.68 L 204.48 630.61 C 204.46 630.02 204.43 628.85 204.41 628.26 L 205.75 628.72 C 205.63 628.22 205.37 627.21 205.25 626.71 L 206.32 626.65 C 206.27 625.07 206.99 624.33 208.47 624.43 C 207.65 621.41 211.35 619.30 213.85 622.53 C 205.74 622.12 213.31 615.29 216.49 617.11 L 212.67 616.11 C 213.37 615.96 214.78 615.65 215.49 615.49 C 215.19 614.03 215.79 613.30 217.28 613.31 C 217.81 610.59 218.58 610.67 219.58 613.56 C 218.06 610.24 221.30 608.55 223.55 607.29 C 223.74 606.81 224.11 605.85 224.30 605.37 L 225.03 610.46 C 224.65 607.14 224.82 603.87 228.39 604.45 C 228.24 602.73 230.24 602.46 231.17 601.50 L 232.57 601.70 L 232.68 600.21 C 233.18 600.35 234.17 600.63 234.67 600.77 L 234.35 599.32 C 234.94 599.38 236.14 599.50 236.73 599.56 L 236.51 598.16 C 237.02 598.31 238.05 598.59 238.56 598.74 L 238.68 597.17 C 239.16 597.34 240.12 597.69 240.60 597.86 L 240.40 596.61 C 241.69 596.55 244.27 596.44 245.56 596.38 L 242.90 595.13 C 243.89 595.26 245.87 595.51 246.87 595.63 L 246.23 594.52 C 247.78 594.44 249.34 594.43 250.90 594.49 L 250.16 593.40 C 251.08 593.43 252.91 593.50 253.82 593.53 L 253.44 592.73 C 257.04 592.34 260.68 592.27 264.30 592.60 L 262.10 591.51 C 370.03 591.53 477.98 591.64 585.91 591.44 L 585.19 590.57 C 587.96 590.49 591.19 589.51 593.20 592.36 L 590.30 589.41 C 591.45 589.43 593.76 589.46 594.91 589.48 L 594.23 588.41 C 595.14 588.42 596.96 588.45 597.88 588.47 L 597.30 587.38 C 597.84 587.40 598.91 587.44 599.44 587.45 L 600.52 589.68 C 600.54 588.85 600.58 587.19 600.60 586.36 L 602.63 586.48 L 602.67 585.27 C 603.02 585.36 603.73 585.55 604.08 585.64 C 605.14 584.45 606.53 584.02 608.26 584.34 L 606.33 582.99 L 608.10 583.55 C 609.63 582.10 611.51 581.81 613.75 582.67 L 610.03 581.24 L 612.77 581.46 L 612.47 580.23 C 613.38 580.33 615.21 580.53 616.12 580.63 L 613.37 578.89 L 617.08 579.75 L 615.04 578.13 L 616.19 578.41 C 616.81 578.15 618.05 577.64 618.66 577.38 L 618.20 576.28 L 619.63 576.67 L 619.45 575.42 C 621.91 576.54 621.04 573.07 623.33 573.39 C 623.52 571.88 624.32 571.27 625.74 571.56 L 624.83 569.86 L 627.85 572.65 L 625.59 568.95 L 629.12 571.65 L 626.66 568.39 L 628.21 568.73 C 628.41 567.52 629.05 566.64 630.13 566.10 C 630.49 564.81 631.34 564.23 632.70 564.39 C 632.55 563.87 632.27 562.82 632.12 562.30 L 633.39 562.81 C 633.56 561.58 634.01 560.40 634.74 559.28 L 635.46 559.68 C 635.70 558.48 636.13 557.35 636.74 556.29 L 637.88 556.56 L 637.26 554.95 C 637.65 554.78 638.45 554.45 638.84 554.28 L 638.24 552.61 L 641.53 554.93 C 640.83 554.07 639.41 552.35 638.71 551.49 L 640.32 551.79 C 640.39 551.14 640.53 549.85 640.60 549.21 L 643.66 549.81 C 642.88 549.22 641.33 548.05 640.55 547.46 L 642.40 547.88 C 642.41 546.98 642.43 545.18 642.44 544.28 L 643.36 545.00 C 643.42 544.08 643.55 542.23 643.61 541.30 L 644.40 541.97 C 644.46 541.04 644.57 539.17 644.63 538.24 L 645.53 538.90 C 645.51 537.97 645.46 536.13 645.43 535.20 L 646.48 535.86 C 646.42 534.27 646.38 532.68 646.38 531.10 L 647.44 531.92 C 647.31 528.66 647.49 525.41 647.59 522.15 L 648.44 522.97 C 648.34 519.33 648.33 515.69 648.45 512.06 L 647.56 512.89 C 647.47 509.60 647.32 506.31 647.41 503.02 L 646.32 503.98 C 646.35 502.35 646.41 500.72 646.48 499.10 L 645.35 499.87 C 645.38 498.92 645.44 497.03 645.47 496.09 L 644.48 496.74 C 644.47 495.83 644.45 494.01 644.44 493.11 L 643.47 493.66 C 643.46 492.78 643.43 491.02 643.42 490.14 L 642.09 490.60 C 642.25 490.07 642.57 489.00 642.73 488.47 L 641.28 488.35 C 641.40 487.87 641.63 486.91 641.74 486.42 L 640.57 486.53 C 640.53 485.48 640.45 483.40 640.41 482.36 L 638.90 484.32 L 639.58 482.30 L 638.32 482.28 C 638.41 481.82 638.58 480.89 638.67 480.43 L 637.25 480.35 C 637.35 479.84 637.55 478.81 637.64 478.29 L 636.04 478.57 C 636.21 478.09 636.57 477.14 636.75 476.66 C 635.47 476.64 634.60 476.00 634.15 474.73 C 633.89 474.48 633.38 473.98 633.13 473.72 L 635.26 472.66 C 633.00 473.21 631.66 472.44 631.25 470.36 L 630.20 470.49 C 630.31 470.03 630.54 469.11 630.65 468.64 C 626.60 467.40 624.67 462.63 621.19 460.44 L 620.29 460.57 L 620.59 459.61 C 616.04 460.75 620.59 449.91 617.17 458.02 C 616.97 457.66 616.56 456.96 616.36 456.60 C 615.37 456.34 614.46 455.90 613.63 455.27 C 612.85 454.59 612.00 453.97 611.06 453.41 L 610.09 453.78 L 610.78 452.27 C 610.21 452.42 609.08 452.71 608.52 452.85 L 608.63 451.30 C 608.12 451.43 607.11 451.68 606.60 451.81 L 606.60 450.33 C 606.08 450.45 605.04 450.70 604.53 450.82 L 604.55 449.21 C 603.99 449.42 602.88 449.85 602.33 450.06 L 602.89 448.58 C 601.99 448.58 600.20 448.59 599.30 448.59 L 599.90 447.56 C 599.00 447.55 597.19 447.55 596.28 447.55 L 596.91 446.54 C 595.99 446.55 594.15 446.58 593.23 446.60 L 593.84 445.52 C 592.28 445.57 590.72 445.58 589.17 445.55 L 589.94 444.57 C 587.50 444.67 585.06 444.33 582.65 444.81 L 585.16 443.58 C 472.77 443.67 360.39 443.58 248.00 443.61 C 245.75 443.61 243.50 443.57 241.25 443.51 L 241.94 442.51 C 241.05 442.50 239.29 442.50 238.41 442.49 L 238.75 441.54 C 238.15 441.51 236.95 441.45 236.35 441.42 L 236.47 437.17 C 236.01 438.27 235.10 440.49 234.64 441.60 L 234.78 439.67 C 233.18 439.92 231.97 439.46 231.15 438.30 L 229.78 438.94 L 230.87 437.45 C 230.11 437.44 228.60 437.43 227.84 437.42 L 230.37 434.08 C 229.33 434.89 227.26 436.52 226.22 437.33 L 227.94 435.04 L 224.79 436.20 L 226.70 434.43 C 225.87 434.49 224.22 434.61 223.40 434.67 L 223.73 433.52 C 223.04 433.38 221.64 433.09 220.94 432.95 L 224.16 429.79 C 222.94 430.32 220.51 431.36 219.29 431.88 L 219.77 430.70 C 216.73 429.91 215.17 426.91 212.92 425.00 C 212.10 423.81 210.13 423.34 210.44 421.59 C 208.71 421.59 208.17 420.83 208.81 419.33 L 206.71 420.10 L 209.44 418.04 L 206.89 418.82 C 206.11 417.71 205.58 416.51 205.31 415.21 L 204.07 415.57 C 204.24 415.09 204.58 414.13 204.75 413.65 C 202.52 413.77 201.76 411.06 201.49 409.39 L 200.33 409.29 C 200.43 408.82 200.62 407.88 200.71 407.42 L 199.29 407.36 C 199.39 406.87 199.59 405.88 199.69 405.39 L 198.22 405.33 C 198.34 404.96 198.59 404.22 198.71 403.86 C 197.50 403.01 197.04 401.76 197.35 400.10 L 196.23 400.72 C 196.34 400.12 196.56 398.92 196.67 398.32 L 195.58 398.52 C 195.47 397.05 195.44 395.58 195.48 394.11 L 194.35 394.80 C 194.39 393.86 194.49 391.97 194.54 391.03 L 193.58 391.83 C 193.50 390.28 193.47 388.73 193.49 387.19 L 192.71 387.62 C 192.42 384.44 192.32 381.25 192.47 378.06 L 191.56 378.78 C 191.66 375.26 191.66 371.73 191.56 368.21 L 192.46 368.95 C 192.32 365.73 192.41 362.51 192.74 359.31 L 193.56 359.77 C 193.51 358.24 193.52 356.71 193.58 355.19 L 194.58 355.95 C 194.53 355.01 194.42 353.12 194.36 352.17 L 195.58 352.94 C 195.47 351.85 195.24 349.66 195.13 348.56 L 196.53 351.48 C 196.47 350.09 196.35 347.31 196.30 345.92 L 197.44 348.28 C 197.47 347.09 197.54 344.69 197.57 343.49 L 198.77 343.61 C 198.65 343.13 198.41 342.16 198.29 341.68 L 199.67 341.62 C 199.59 341.13 199.42 340.15 199.34 339.66 L 200.67 339.61 C 200.60 339.13 200.45 338.17 200.38 337.69 L 201.84 337.47 L 201.04 336.03 L 202.71 336.83 C 202.58 336.25 202.32 335.10 202.19 334.52 L 203.35 334.70 C 203.62 334.05 204.15 332.77 204.42 332.13 L 204.50 331.23 L 205.48 331.72 C 205.54 331.22 205.65 330.22 205.71 329.72 L 207.03 329.23 L 210.32 331.64 C 209.41 330.62 207.59 328.58 206.68 327.56 L 208.27 327.74 C 207.08 323.70 217.29 326.56 209.79 324.10 C 213.04 324.41 212.23 319.87 215.47 320.43 C 215.64 319.75 215.97 318.39 216.13 317.71 L 217.08 321.14 C 216.49 318.25 217.37 316.64 219.71 316.31 L 219.59 314.80 C 220.59 315.66 222.58 317.39 223.57 318.25 C 217.76 315.63 222.36 314.23 223.57 312.69 C 224.47 311.97 225.50 311.56 226.64 311.46 L 226.66 310.25 C 227.17 310.36 228.18 310.59 228.68 310.70 L 228.60 308.68 C 229.34 309.68 230.81 311.66 231.55 312.66 L 229.99 308.45 C 230.70 308.46 232.11 308.47 232.82 308.48 L 232.34 306.96 C 232.88 307.16 233.98 307.58 234.53 307.78 L 234.84 305.40 C 235.16 306.39 235.81 308.37 236.13 309.36 L 236.57 305.54 C 237.12 305.52 238.22 305.48 238.77 305.46 L 238.40 304.55 C 239.62 304.52 242.06 304.46 243.28 304.44 L 241.04 303.39 C 242.35 303.41 244.96 303.45 246.26 303.47 L 244.14 302.46 C 246.09 302.44 248.03 302.44 249.99 302.46 L 249.07 301.36 C 249.99 301.41 251.83 301.49 252.75 301.53 L 252.54 300.76 C 259.01 300.18 265.52 300.45 272.01 300.39 C 495.97 300.43 719.93 300.28 943.89 300.42 L 943.31 299.66 C 945.62 299.72 947.91 299.37 950.24 299.35 C 952.22 298.20 954.62 298.44 956.84 298.41 L 956.28 297.48 C 957.76 297.44 959.24 297.42 960.74 297.43 L 960.42 296.03 C 960.83 296.17 961.64 296.45 962.04 296.59 C 963.06 295.67 964.29 295.24 965.74 295.30 L 965.42 294.45 C 966.31 294.44 968.08 294.41 968.97 294.40 L 968.05 293.50 C 970.95 293.21 972.91 291.12 975.59 290.29 L 975.75 289.23 C 976.24 289.38 977.21 289.66 977.70 289.80 L 977.17 288.80 C 979.57 288.78 981.77 283.40 982.74 288.39 L 982.31 285.79 L 982.81 284.88 C 983.23 284.75 984.07 284.49 984.49 284.37 L 984.39 283.54 L 985.15 283.41 C 987.84 281.76 989.62 279.00 992.04 276.99 C 993.23 276.31 993.93 275.11 994.26 273.79 L 995.41 275.93 C 995.39 275.06 995.34 273.30 995.32 272.43 L 996.23 272.64 C 996.69 270.30 998.11 269.66 1000.49 270.72 L 998.16 269.40 C 998.46 269.12 999.07 268.57 999.37 268.29 C 999.75 267.28 1000.21 266.30 1000.74 265.35 L 1001.77 265.53 L 1001.46 264.25 C 1002.56 263.16 1003.27 261.78 1003.73 260.32 L 1004.82 260.59 C 1004.63 260.10 1004.26 259.13 1004.07 258.64 L 1005.58 258.62 C 1005.50 258.07 1005.34 256.98 1005.26 256.43 L 1006.75 256.58 C 1006.55 256.02 1006.15 254.90 1005.95 254.34 L 1007.40 254.86 C 1007.40 253.96 1007.39 252.18 1007.39 251.29 L 1008.41 251.90 C 1008.42 250.99 1008.44 249.17 1008.45 248.26 L 1009.43 248.89 C 1009.42 247.96 1009.40 246.10 1009.39 245.17 L 1010.38 245.87 C 1010.41 243.98 1010.48 242.10 1010.62 240.21 L 1011.53 240.81 C 1011.34 238.90 1011.46 236.99 1011.49 235.09 L 1012.42 235.95 C 1012.31 229.32 1012.30 222.69 1012.43 216.06 L 1011.51 216.91 C 1011.40 215.00 1011.40 213.09 1011.47 211.18 L 1010.61 211.74 C 1010.45 209.88 1010.42 208.01 1010.39 206.15 L 1009.37 206.80 C 1009.39 205.88 1009.42 204.04 1009.44 203.12 L 1008.45 203.71 C 1008.43 202.81 1008.39 201.00 1008.37 200.09 L 1007.09 200.61 C 1007.22 200.19 1007.47 199.34 1007.60 198.92 C 1006.26 197.36 1005.27 195.38 1005.37 193.29 L 1004.09 193.49 C 1004.24 192.97 1004.54 191.94 1004.70 191.42 L 1003.18 191.49 C 1003.30 190.89 1003.52 189.68 1003.63 189.08 L 1002.15 190.28 L 1002.79 188.68 C 1002.39 188.52 1001.61 188.20 1001.21 188.04 L 1001.86 186.43 L 1000.73 186.75 C 1000.06 185.69 999.62 184.55 999.41 183.34 L 997.82 183.38 C 998.44 182.85 999.69 181.80 1000.32 181.28 C 997.94 182.35 996.63 181.74 996.36 179.45 L 995.41 179.72 L 995.66 178.72 C 992.75 175.81 989.46 173.05 987.05 169.66 C 986.65 169.61 985.83 169.52 985.43 169.47 L 985.61 168.31 L 984.26 168.73 L 984.62 167.58 C 983.85 167.39 982.29 167.01 981.52 166.82 L 984.89 165.89 C 983.92 165.22 978.60 166.48 979.51 163.49 C 977.67 164.06 976.31 162.35 975.14 161.31 L 974.18 161.69 C 973.05 160.29 971.29 159.32 969.46 159.53 L 971.03 158.62 C 969.38 158.96 968.08 158.55 967.13 157.41 C 966.69 157.52 965.81 157.73 965.37 157.84 L 965.91 156.66 C 964.99 156.60 963.15 156.46 962.22 156.40 L 962.97 155.58 C 962.05 155.55 960.20 155.47 959.28 155.44 L 959.87 154.52 C 958.94 154.54 957.08 154.58 956.14 154.60 L 956.92 153.60 C 955.00 153.59 953.12 153.57 951.23 153.48 L 951.90 152.61 C 948.66 152.68 945.44 152.40 942.22 152.35 L 942.94 151.59 C 936.44 151.65 929.94 151.72 923.45 151.55 L 923.00 153.72 L 922.55 151.55 C 911.37 151.70 900.20 151.78 889.02 151.61 L 889.83 152.49 C 888.92 152.48 887.10 152.46 886.19 152.45 L 886.94 151.59 C 882.31 151.66 877.68 151.67 873.06 151.58 L 873.83 152.48 C 872.93 152.46 871.13 152.42 870.23 152.41 L 870.81 151.53 C 856.03 151.71 841.24 151.70 826.46 151.54 L 826.00 153.65 L 825.54 151.54 C 746.04 151.72 666.52 151.63 587.02 151.57 L 588.00 150.58 C 585.74 150.61 583.50 150.59 581.26 150.51 L 581.83 149.53 C 580.30 149.56 578.77 149.55 577.25 149.49 L 577.93 148.54 C 577.01 148.54 575.17 148.55 574.25 148.55 L 574.98 147.60 C 574.09 147.56 572.31 147.49 571.42 147.45 L 571.61 146.22 C 571.10 146.38 570.07 146.72 569.56 146.88 L 569.63 145.31 C 569.08 145.45 567.97 145.74 567.42 145.89 L 567.67 144.29 C 567.10 144.45 565.98 144.76 565.41 144.92 L 565.67 143.29 C 565.11 143.44 564.01 143.74 563.45 143.89 L 563.69 142.34 C 563.16 142.45 562.09 142.68 561.56 142.80 L 561.65 141.37 C 561.23 141.41 560.40 141.50 559.99 141.55 C 555.81 141.24 557.77 129.26 556.26 139.62 C 556.08 139.11 555.74 138.08 555.57 137.57 C 554.79 137.38 553.24 137.00 552.47 136.81 L 556.85 135.80 C 555.47 135.73 552.72 135.60 551.35 135.53 L 551.93 134.30 L 550.04 135.17 L 552.68 131.97 L 549.34 134.30 L 549.79 132.82 C 547.51 132.41 546.71 130.98 547.39 128.53 L 546.13 131.09 C 546.31 128.95 543.55 128.53 543.37 126.50 L 542.53 126.62 L 542.59 125.58 C 542.13 125.38 541.21 124.97 540.75 124.77 L 543.81 123.72 C 541.12 124.45 539.64 123.66 539.35 121.35 L 538.76 121.65 C 538.07 120.65 537.65 119.56 537.49 118.38 L 536.74 118.65 C 536.31 117.65 535.83 116.67 535.31 115.71 C 535.07 115.13 534.59 113.98 534.35 113.41 L 533.30 113.30 C 533.40 112.83 533.59 111.88 533.68 111.41 L 532.24 111.37 C 532.37 110.88 532.63 109.91 532.76 109.43 L 531.50 109.51 C 531.48 108.66 531.43 106.98 531.41 106.13 L 529.90 106.62 C 530.14 106.07 530.63 104.97 530.87 104.42 L 529.50 104.61 C 529.50 103.73 529.48 101.98 529.48 101.10 L 528.47 101.73 C 528.48 100.82 528.49 99.00 528.50 98.10 L 527.59 98.70 C 527.47 96.83 527.43 94.96 527.41 93.09 L 526.47 93.79 C 526.42 91.21 526.32 88.64 526.46 86.06 L 525.49 86.92 C 525.60 80.38 524.68 73.65 526.30 67.25 C 526.51 65.66 526.53 64.06 526.76 62.48 L 527.51 62.77 C 527.50 61.88 527.48 60.11 527.47 59.22 L 528.45 59.87 C 528.43 58.36 528.48 56.86 528.62 55.35 L 529.88 55.60 C 529.64 55.05 529.16 53.95 528.92 53.40 L 530.42 53.87 C 530.42 53.01 530.42 51.27 530.42 50.40 L 531.72 50.67 C 531.57 50.11 531.28 48.99 531.13 48.43 L 532.69 48.68 C 532.54 48.09 532.24 46.92 532.09 46.33 L 533.66 46.79 C 533.52 46.17 533.24 44.92 533.10 44.30 L 534.30 44.84 C 534.39 44.19 534.56 42.90 534.64 42.26 L 537.96 42.60 C 537.14 42.15 535.52 41.23 534.71 40.78 L 536.79 40.58 L 535.78 38.88 L 537.53 39.96 C 537.47 39.33 537.34 38.07 537.28 37.44 L 538.31 37.70 C 538.64 36.45 539.17 35.28 539.91 34.20 L 542.15 34.83 L 539.73 32.89 L 541.67 33.65 C 541.19 32.14 541.79 31.38 543.49 31.37 C 543.77 30.82 544.34 29.74 544.63 29.20 L 544.48 28.61 L 545.54 28.44 L 545.69 27.35 L 546.70 27.68 L 546.45 26.40 L 547.71 26.69 L 547.36 25.67 L 548.48 25.53 L 548.58 24.43 L 549.16 24.64 C 550.98 23.69 551.50 21.34 553.76 21.25 L 553.29 20.05 L 554.78 20.82 L 554.37 19.67 C 554.89 18.63 558.81 19.02 557.14 17.72 C 557.67 17.40 558.73 16.78 559.26 16.47 L 560.58 16.78 L 560.38 15.43 C 560.92 15.45 561.99 15.48 562.52 15.50 L 562.54 14.19 L 563.17 14.39 C 564.26 13.66 565.49 13.28 566.84 13.26 L 566.30 11.93 C 566.87 12.14 568.01 12.56 568.58 12.77 L 568.68 10.59 C 569.19 11.51 570.20 13.36 570.71 14.28 L 570.25 10.68 C 570.86 10.62 572.08 10.49 572.69 10.43 L 572.45 9.56 C 573.33 9.52 575.09 9.44 575.97 9.40 L 575.27 8.53 C 576.79 8.45 578.32 8.43 579.85 8.46 L 579.20 7.39 C 580.75 7.40 582.30 7.43 583.86 7.49 L 583.20 6.47 C 585.46 6.41 587.73 6.39 590.01 6.43 L 589.07 5.57 Z" />
<path fill="#ffffff" opacity="1.00" d=" M 66.22 595.67 C 70.84 595.26 75.49 595.29 80.12 595.44 L 78.47 594.52 C 80.63 594.56 82.79 594.60 84.95 594.63 L 83.90 597.30 C 85.82 593.62 90.51 595.95 93.80 595.55 L 93.13 596.36 C 95.05 596.38 96.97 596.44 98.89 596.61 L 98.02 599.46 C 98.93 597.41 100.45 596.78 102.60 597.57 L 102.11 598.32 C 103.00 598.39 104.77 598.54 105.66 598.61 L 105.45 599.82 C 106.00 599.59 107.11 599.12 107.67 598.88 L 107.10 600.33 C 107.96 600.37 109.67 600.44 110.53 600.48 L 110.49 601.75 C 110.96 601.59 111.91 601.26 112.38 601.10 L 112.39 602.59 C 112.91 602.49 113.94 602.30 114.45 602.20 L 114.41 603.62 C 114.89 603.52 115.85 603.32 116.33 603.21 L 116.47 604.31 C 117.06 604.54 118.24 605.00 118.84 605.23 C 119.75 605.76 120.69 606.27 121.64 606.75 L 121.42 607.38 C 122.55 607.62 123.60 608.07 124.56 608.74 L 124.50 609.22 C 125.74 609.44 126.48 610.14 126.72 611.30 C 127.82 611.59 128.82 612.08 129.74 612.79 L 129.39 613.77 L 130.63 613.17 L 130.27 614.65 L 131.64 614.12 L 131.34 615.43 L 132.87 615.38 L 132.38 616.26 C 133.79 616.43 134.55 617.22 134.68 618.64 L 135.64 618.00 L 135.34 619.54 L 136.41 619.25 L 136.52 620.32 L 137.26 620.61 C 138.00 622.44 140.15 623.26 140.57 625.32 C 142.00 625.63 142.42 627.34 142.62 628.57 L 143.26 628.38 C 143.86 629.70 144.46 631.13 145.64 632.06 C 145.59 632.43 145.48 633.17 145.42 633.54 L 146.86 633.65 C 146.73 634.03 146.49 634.79 146.36 635.17 L 147.43 635.71 C 147.51 636.19 147.67 637.16 147.75 637.64 L 148.93 637.64 C 148.80 638.00 148.52 638.73 148.39 639.09 C 149.56 639.99 150.03 641.26 149.81 642.93 L 151.14 642.27 C 150.91 642.83 150.46 643.96 150.24 644.52 L 151.39 644.35 C 151.48 645.25 151.66 647.06 151.75 647.97 L 152.48 647.31 C 152.55 648.76 152.59 650.22 152.59 651.68 L 153.49 651.33 C 153.55 652.76 153.60 654.20 153.61 655.65 L 154.32 655.41 C 154.54 658.19 154.79 660.99 154.65 663.79 L 155.38 663.34 C 155.43 667.50 155.45 671.67 155.36 675.84 L 154.51 675.22 C 154.83 678.05 154.63 680.92 154.33 683.75 L 153.65 683.20 C 153.59 684.96 153.53 686.75 153.36 688.52 L 152.80 688.27 C 152.53 690.56 151.55 692.77 151.71 695.13 L 150.73 693.06 C 150.66 694.21 150.51 696.51 150.43 697.67 L 149.53 697.39 C 149.55 697.85 149.57 698.76 149.58 699.22 L 148.74 699.77 C 148.78 702.10 146.65 703.72 146.50 705.94 L 145.58 705.23 L 145.66 707.05 C 145.36 707.25 144.75 707.64 144.45 707.83 C 144.49 708.10 144.58 708.62 144.63 708.89 C 143.74 710.26 142.59 711.42 141.69 712.78 C 140.89 714.28 139.88 715.78 138.43 716.72 L 138.60 717.66 L 137.75 717.54 C 137.55 718.69 136.89 719.45 135.79 719.82 C 133.65 722.99 130.69 725.79 127.43 727.81 L 127.59 728.20 C 126.23 729.10 124.96 730.16 123.41 730.76 L 123.70 731.23 C 122.76 732.05 121.68 732.48 120.44 732.53 L 120.62 733.25 C 118.80 733.88 117.43 735.48 115.46 735.70 L 115.29 736.70 C 114.84 736.62 113.93 736.47 113.47 736.39 L 113.27 737.80 C 112.93 737.69 112.27 737.48 111.94 737.37 C 110.80 738.72 109.24 739.15 107.24 738.65 L 109.09 740.15 C 108.39 739.93 107.00 739.49 106.31 739.27 L 106.74 740.38 C 105.83 740.45 104.00 740.58 103.08 740.65 L 103.67 741.48 C 102.16 741.57 100.65 741.61 99.14 741.59 L 99.82 742.61 C 98.93 742.59 97.15 742.54 96.25 742.52 C 96.33 742.73 96.48 743.16 96.56 743.38 C 94.05 743.51 91.54 743.68 89.02 743.62 L 89.90 744.38 C 83.41 744.72 76.90 744.76 70.41 744.32 L 72.58 743.46 C 70.11 743.68 67.64 743.59 65.16 743.54 L 65.92 742.61 C 64.03 742.57 62.15 742.55 60.27 742.44 L 60.95 741.58 C 59.98 741.55 58.03 741.47 57.05 741.44 L 58.00 740.54 C 56.96 740.50 54.90 740.42 53.86 740.38 L 55.84 737.67 C 54.16 740.06 52.58 740.27 51.11 738.31 C 50.74 738.46 49.99 738.75 49.62 738.90 L 49.71 737.63 C 49.19 737.55 48.14 737.38 47.62 737.30 L 46.98 733.35 L 46.40 737.10 L 45.65 737.00 L 45.64 735.35 C 45.14 735.46 44.13 735.67 43.62 735.77 L 43.58 734.33 C 43.10 734.41 42.14 734.58 41.66 734.66 L 41.64 733.68 C 40.64 733.30 39.69 732.83 38.78 732.28 C 36.38 731.19 35.24 729.02 36.03 726.01 L 35.32 730.66 C 35.11 730.17 34.70 729.19 34.49 728.70 C 30.69 729.42 33.35 719.27 31.13 727.26 C 30.52 725.69 30.73 723.61 28.43 724.63 L 28.71 723.33 L 27.45 723.61 L 27.74 722.32 L 26.72 722.67 L 26.56 721.54 L 25.46 721.43 L 25.65 720.83 L 24.71 720.03 C 25.00 717.75 21.55 718.95 22.40 716.30 L 21.18 716.80 L 21.65 715.29 L 19.82 715.39 C 20.60 714.49 22.18 712.69 22.96 711.79 C 20.46 714.53 18.92 714.38 18.35 711.34 L 17.72 711.60 C 17.23 710.52 16.79 709.43 16.39 708.33 L 15.35 708.38 C 15.43 707.89 15.60 706.90 15.69 706.41 L 14.24 706.37 C 14.35 705.86 14.58 704.82 14.70 704.30 L 13.23 704.56 C 13.34 704.00 13.55 702.88 13.65 702.32 L 12.14 702.48 C 12.29 701.97 12.58 700.93 12.73 700.42 L 11.16 700.35 C 11.33 699.86 11.67 698.88 11.84 698.39 L 10.57 698.60 C 10.54 697.33 10.47 694.80 10.43 693.54 L 9.36 696.02 C 9.39 694.67 9.44 691.97 9.47 690.62 L 8.29 693.05 C 8.35 692.06 8.47 690.06 8.53 689.07 L 7.57 689.71 C 7.48 687.82 7.45 685.93 7.44 684.06 L 6.48 684.82 C 6.46 683.30 6.47 681.79 6.53 680.29 L 5.78 680.66 C 5.28 673.33 5.26 665.98 5.80 658.65 L 6.45 658.66 C 6.57 656.91 6.52 655.17 6.70 653.45 L 7.52 653.82 C 7.50 652.91 7.45 651.10 7.42 650.20 L 8.49 650.89 C 8.44 649.36 8.46 647.85 8.55 646.35 L 9.44 646.95 C 9.47 646.06 9.54 644.28 9.58 643.39 L 10.67 643.73 C 10.55 643.11 10.31 641.88 10.19 641.27 L 11.33 641.91 C 11.09 640.31 11.53 639.07 12.64 638.17 C 12.56 637.80 12.39 637.06 12.30 636.69 L 13.72 636.55 C 13.62 636.08 13.41 635.15 13.30 634.69 L 14.70 634.70 L 13.91 633.12 L 15.49 633.81 C 15.48 633.12 15.46 631.73 15.45 631.04 L 18.65 632.05 C 17.98 631.52 16.64 630.47 15.96 629.94 C 17.67 629.72 17.84 627.75 18.72 626.63 C 20.14 624.48 21.62 623.10 25.12 624.05 L 20.42 623.27 C 20.96 623.09 22.03 622.75 22.57 622.57 L 22.28 621.36 L 23.32 621.63 C 23.36 620.25 24.04 619.48 25.36 619.31 C 26.22 617.12 28.18 615.17 30.41 614.38 C 30.48 613.01 31.22 612.37 32.63 612.44 L 32.21 611.38 L 33.19 611.64 C 34.92 610.45 35.93 607.97 38.43 608.42 C 38.40 607.09 39.13 606.37 40.61 606.26 L 40.73 605.30 C 41.19 605.40 42.11 605.59 42.57 605.69 L 42.55 604.23 C 43.09 604.33 44.18 604.53 44.73 604.63 L 44.39 603.16 C 45.00 603.28 46.22 603.51 46.84 603.63 L 46.21 602.23 C 46.85 602.31 48.13 602.47 48.77 602.56 L 48.39 601.03 C 48.87 601.20 49.84 601.54 50.32 601.71 L 50.68 600.37 C 51.17 600.42 52.13 600.51 52.61 600.56 L 52.47 599.52 C 53.32 599.51 55.00 599.49 55.85 599.48 L 55.33 598.42 C 56.21 598.43 57.99 598.44 58.88 598.45 L 58.30 597.47 C 59.81 597.43 61.32 597.43 62.84 597.47 L 62.20 596.44 C 63.73 596.42 65.27 596.45 66.80 596.53 L 66.22 595.67 Z" />
</g>
</svg>
