<?xml version="1.0" encoding="UTF-8" ?>
<!DOCTYPE svg PUBLIC "-//W3C//DTD SVG 1.1//EN" "http://www.w3.org/Graphics/SVG/1.1/DTD/svg11.dtd">
<svg width="1600" height="198pt" viewBox="0 0 3334 413" version="1.1" xmlns="http://www.w3.org/2000/svg">
<g id="#ffffffff">
<path fill="#ffffff" opacity="1.00" d=" M 1554.44 0.00 L 1709.41 0.00 C 1714.57 0.90 1719.83 0.37 1725.04 0.50 C 1829.01 2.58 1933.02 8.87 2036.43 20.67 C 2039.40 21.05 2042.40 21.38 2045.42 21.65 C 2048.07 22.02 2050.73 22.37 2053.42 22.66 C 2133.05 32.15 2212.28 45.02 2290.87 61.02 C 2356.01 74.25 2420.71 89.58 2485.09 106.15 C 2582.18 131.01 2678.58 158.53 2775.99 182.17 C 2848.84 199.88 2922.29 215.30 2996.42 226.64 C 3010.40 228.78 3024.38 230.87 3038.42 232.66 C 3054.71 234.91 3071.05 236.87 3087.41 238.66 C 3137.79 244.26 3188.38 247.91 3239.00 249.99 C 3251.69 250.34 3264.36 251.13 3277.07 251.02 C 3290.33 252.22 3303.69 250.78 3316.96 251.98 C 3322.63 252.05 3328.31 251.97 3334.00 252.00 L 3334.00 413.00 L 0.00 413.00 L 0.00 252.00 C 6.72 251.88 13.47 252.33 20.17 251.60 C 30.07 251.18 40.01 251.92 49.89 251.21 C 100.86 250.07 151.83 246.88 202.58 241.66 C 222.29 239.68 241.96 237.31 261.59 234.66 C 354.30 222.34 445.88 202.67 536.40 179.40 C 615.40 159.23 693.76 136.68 772.53 115.65 C 858.99 92.43 946.06 71.26 1034.00 54.35 C 1083.30 44.82 1132.86 36.66 1182.59 29.65 C 1192.59 28.36 1202.58 26.97 1212.59 25.65 C 1215.25 25.37 1217.90 25.02 1220.57 24.66 C 1231.57 23.25 1242.59 22.04 1253.59 20.65 C 1267.19 19.18 1280.80 17.70 1294.42 16.33 C 1343.54 11.40 1392.78 7.66 1442.07 5.00 C 1479.55 3.14 1517.03 1.24 1554.56 1.00 L 1554.44 0.00 Z" />
</g>
</svg>
